<svg width="14" height="18" viewBox="0 0 14 18" fill="none" xmlns="http://www.w3.org/2000/svg">
<path d="M12.9651 5.48438C12.9651 2.89954 10.8566 0.796875 8.26464 0.796875H1.21387V17.2031H8.26464C10.8566 17.2031 12.9651 15.1005 12.9651 12.5156C12.9651 11.1167 12.3467 9.85968 11.3686 9C12.3467 8.14032 12.9651 6.8833 12.9651 5.48438ZM10.6149 12.5156C10.6149 13.808 9.56064 14.8594 8.26464 14.8594H3.56412V10.1719H8.26464C9.56064 10.1719 10.6149 11.2232 10.6149 12.5156ZM3.56412 7.82812V3.14062H8.26464C9.56064 3.14062 10.6149 4.19196 10.6149 5.48438C10.6149 6.77679 9.56064 7.82812 8.26464 7.82812H3.56412Z" fill="#070707" stroke="#070707" stroke-width="0.5"/>
</svg>
