<svg width="5" height="14" viewBox="0 0 5 14" fill="none" xmlns="http://www.w3.org/2000/svg">
<path d="M4.61087 13.6707H4.60939H4.60101H4.59262H4.58423H4.57584H4.56746H4.55907H4.55069H4.5423H4.53392H4.52553H4.51715H4.50876H4.50038H4.49199H4.48361H4.47523H4.46685H4.45846H4.45008H4.4417H4.43332H4.42494H4.41655H4.40817H4.39979H4.39141H4.38303H4.37465H4.36628H4.3579H4.34952H4.34114H4.33276H4.32438H4.31601H4.30763H4.29925H4.29087H4.2825H4.27412H4.26575H4.25737H4.24899H4.24062H4.23224H4.22387H4.21549H4.20712H4.19875H4.19037H4.182H4.17363H4.16525H4.15688H4.14851H4.14014H4.13176H4.12339H4.11502H4.10665H4.09828H4.08991H4.08154H4.07317H4.0648H4.05643H4.04806H4.03969H4.03132H4.02295H4.01458H4.00621H3.99784H3.98948H3.98111H3.97274H3.96437H3.95601H3.94764H3.93927H3.93091H3.92254H3.91418H3.90581H3.89744H3.88908H3.88071H3.87235H3.86398H3.85562H3.84725H3.83889H3.83053H3.82216H3.8138H3.80544H3.79707H3.78871H3.78035H3.77198H3.76362H3.75526H3.7469H3.73854H3.73018H3.72181H3.71345H3.70509H3.69673H3.68837H3.68001H3.67165H3.66329H3.65493H3.64657H3.63821H3.62985H3.62149H3.61313H3.60477H3.59641H3.58806H3.5797H3.57134H3.56298H3.55462H3.54626H3.53791H3.52955H3.52119H3.51284H3.50448H3.49612H3.48776H3.47941H3.47105H3.4627H3.45434H3.44598H3.43763H3.42927H3.42092H3.41256H3.40421H3.39585H3.3875H3.37914H3.37079H3.36243H3.35408H3.34572H3.33737H3.32901H3.32066H3.31231H3.30395H3.2956H3.28725H3.27889H3.27054H3.26219H3.25383H3.24548H3.23713H3.22878H3.22042H3.21207H3.20372H3.19537H3.18701H3.17866H3.17031H3.16196H3.15361H3.14525H3.1369H3.12855H3.1202H3.11185H3.1035H3.09515H3.0868H3.07845H3.0701H3.06174H3.05339H3.04504H3.03669H3.02834H3.01999H3.01164H3.00329H2.99494H2.98659H2.97824H2.96989H2.96154H2.95319H2.94484H2.9365H2.92815H2.9198H2.91145H2.9031H2.89475H2.8864H2.87805H2.8697H2.86135H2.85301H2.84466H2.83631H2.82796H2.81961H2.81126H2.80291H2.79457H2.78622H2.77787H2.76952H2.76117H2.75282H2.74448H2.73613H2.72778H2.71943H2.71108H2.70274H2.69439H2.68604H2.67769H2.66934H2.661H2.65265H2.6443H2.63595H2.62761H2.61926H2.61091H2.60256H2.59422H2.58587H2.57752H2.56917H2.56083H2.55248H2.54413H2.53578H2.52744H2.51909H2.51074H2.50239H2.49405H2.4857H2.47735H2.469H2.46066H2.45231H2.44396H2.43561H2.42727H2.41892H2.41057H2.40222H2.39388H2.38553H2.37718H2.36883H2.36049H2.35214H2.34379H2.33544H2.3271H2.31875H2.3104H2.30205H2.29371H2.28536H2.27701H2.26866H2.26032H2.25197H2.24362H2.23527H2.22692H2.21858H2.21023H2.20188H2.19353H2.18518H2.17684H2.16849H2.16014H2.15179H2.14344H2.1351H2.12675H2.1184H2.11005H2.1017H2.09335H2.085H2.07666H2.06831H2.05996H2.05161H2.04326H2.03491H2.02656H2.01821H2.00986H2.00152H1.99317H1.98482H1.97647H1.96812H1.95977H1.95142H1.94307H1.93472H1.92637H1.91802H1.90967H1.90132H1.89297H1.88462H1.87627H1.86792H1.85957H1.85122H1.84287H1.83451H1.82616H1.81781H1.80946H1.80111H1.79276H1.78441H1.77606H1.76771H1.75935H1.751H1.74265H1.7343H1.72595H1.71759H1.70924H1.70089H1.69254H1.68418H1.67583H1.66748H1.65912H1.65077H1.64242H1.63407H1.62571H1.61736H1.609H1.60065H1.5923H1.58394H1.57559H1.56723H1.55888H1.55052H1.54217H1.53382H1.52546H1.51711H1.50875H1.50039H1.49204H1.48368H1.47533H1.46697H1.45862H1.45026H1.4419H1.43355H1.42519H1.41683H1.40848H1.40012H1.39176H1.3834H1.37505H1.36669H1.35833H1.34997H1.34161H1.33325H1.3249H1.31654H1.30818H1.29982H1.29146H1.2831H1.27474H1.26638H1.25802H1.24966H1.2413H1.23294H1.22458H1.21622H1.20786H1.1995H1.19113H1.18277H1.17441H1.16605H1.15769H1.14932H1.14096H1.1326H1.12424H1.11587H1.10751H1.09915H1.09078H1.08242H1.07405H1.06569H1.05732H1.04896H1.04059H1.03223H1.02386H1.0155H1.00713H0.998767H0.990401H0.982034H0.973667H0.965301H0.956933H0.948566H0.940198H0.931831H0.923463H0.915094H0.906726H0.898357H0.889988H0.881619H0.87325H0.86488H0.85651H0.84814H0.83977H0.831399H0.823029H0.814658H0.806286H0.797915H0.789543H0.781171H0.772799H0.764426H0.756053H0.74768H0.739307H0.730934H0.72256H0.714186H0.705812H0.697437H0.689062H0.680687H0.672312H0.663936H0.655561H0.647185H0.638808H0.630432H0.622055H0.613678H0.6053H0.596922H0.588544H0.580166H0.571788H0.563409H0.55503H0.54665H0.538271H0.529891H0.521511H0.51313H0.504749H0.496368H0.487987H0.479605H0.471223H0.462841H0.454459H0.446076H0.437693H0.429309H0.420926H0.412542H0.404157H0.395773H0.387388H0.379003H0.370617H0.362232H0.360763V13.6599V13.6338V13.6077V13.5816V13.5554V13.5293V13.5032V13.4771V13.451V13.4248V13.3987V13.3726V13.3465V13.3204V13.2942V13.2681V13.242V13.2159V13.1898V13.1636V13.1375V13.1114V13.0853V13.0592V13.0331V13.0069V12.9808V12.9547V12.9286V12.9025V12.8763V12.8502V12.8241V12.798V12.7719V12.7457V12.7196V12.6935V12.6674V12.6413V12.6152V12.589V12.5629V12.5368V12.5107V12.4846V12.4584V12.4323V12.4062V12.3801V12.354V12.3279V12.3017V12.2756V12.2495V12.2234V12.1973V12.1712V12.145V12.1189V12.0928V12.0667V12.0406V12.0144V11.9883V11.9622V11.9361V11.91V11.8839V11.8577V11.8316V11.8055V11.7794V11.7533V11.7272V11.701V11.6749V11.6488V11.6227V11.5966V11.5705V11.5443V11.5182V11.4921V11.466V11.4399V11.4137V11.3876V11.3615V11.3354V11.3093V11.2832V11.257V11.2309V11.2048V11.1787V11.1526V11.1265V11.1003V11.0742V11.0481V11.022V10.9959V10.9698V10.9436V10.9175V10.8914V10.8653V10.8392V10.8131V10.7869V10.7608V10.7347V10.7086V10.6825V10.6564V10.6302V10.6041V10.578V10.5519V10.5258V10.4997V10.4735V10.4474V10.4213V10.3952V10.3691V10.343V10.3168V10.2907V10.2646V10.2385V10.2124V10.1863V10.1601V10.134V10.1079V10.0818V10.0557V10.0295V10.0034V9.97731V9.9512V9.92508V9.89896V9.87285V9.84673V9.82061V9.79449V9.76838V9.74226V9.71614V9.69002V9.66391V9.63779V9.61167V9.58556V9.55944V9.53332V9.5072V9.48108V9.45497V9.42885V9.40273V9.37661V9.3505V9.32438V9.29826V9.27214V9.24603V9.21991V9.19379V9.16767V9.14155V9.11544V9.08932V9.0632V9.03708V9.01096V8.98485V8.95873V8.93261V8.90649V8.88037V8.85425V8.82814V8.80202V8.7759V8.74978V8.72366V8.69754V8.67142V8.64531V8.61919V8.59307V8.56695V8.54083V8.51471V8.48859V8.46247V8.43636V8.41024V8.38412V8.358V8.33188V8.30576V8.27964V8.25352V8.2274V8.20128V8.17516V8.14904V8.12292V8.09681V8.07069V8.04457V8.01845V7.99233V7.96621V7.94009V7.91397V7.88785V7.86173V7.83561V7.80949V7.78337V7.75725V7.73112V7.705V7.67888V7.65276V7.62664V7.60052V7.5744V7.54828V7.52216V7.49604V7.46992V7.4438V7.41768V7.39155V7.36543V7.33931V7.31319V7.28707V7.26095V7.23483V7.2087V7.18258V7.15646V7.13034V7.10422V7.07809V7.05197V7.02585V6.99973V6.97361V6.94748V6.92136V6.89524V6.86912V6.84299V6.81687V6.79075V6.76462V6.7385V6.71238V6.68626V6.66013V6.63401V6.60789V6.58176V6.55564V6.52951V6.50339V6.47727V6.45114V6.42502V6.3989V6.37277V6.34665V6.32052V6.2944V6.26827V6.24215V6.21602V6.1899V6.16377V6.13765V6.11153V6.0854V6.05927V6.03315V6.00702V5.9809V5.95477V5.92865V5.90252V5.8764V5.85027V5.82414V5.79802V5.77189V5.74576V5.71964V5.69351V5.66739V5.64126V5.61513V5.589V5.56288V5.53675V5.51062V5.4845V5.45837V5.43224V5.40611V5.37999V5.35386V5.32773V5.3016V5.27547V5.24934V5.22322V5.19709V5.17096V5.14483V5.1187V5.09257V5.06644V5.04031V5.01419V4.98806V4.96193V4.9358V4.90967V4.88354V4.85741V4.83128V4.80515V4.77902V4.75289V4.72676V4.70062V4.67449V4.64836V4.62223V4.5961V4.56997V4.54384V4.51771V4.49158V4.46544V4.43931V4.41318V4.38705V4.36092V4.33478V4.30865V4.28252V4.25639V4.23025V4.20412V4.17799V4.15185V4.12572V4.09959V4.07345V4.04732V4.02118V3.99505V3.96892V3.94278V3.91665V3.89051V3.86438V3.83824V3.81211V3.78597V3.75984V3.7337V3.70757V3.68143V3.6553V3.62916V3.60302V3.57689V3.55075V3.52462V3.49848V3.47234V3.4462V3.42007V3.39393V3.36779V3.34166V3.31552V3.28938V3.26324V3.2371V3.21097V3.18483V3.15869V3.13255V3.10641V3.08027V3.05413V3.02799V3.00185V2.97572V2.94958V2.92344V2.8973V2.87116V2.84502V2.81887V2.79273V2.76659V2.74045V2.71431V2.68817V2.66203V2.63589V2.60975V2.5836V2.55746V2.53132V2.50518V2.47903V2.45289V2.42675V2.40061V2.37446V2.34832V2.32218V2.29603V2.26989V2.24374V2.2176V2.19146V2.16531V2.13917V2.11302V2.08688V2.06073V2.03459V2.00844V1.9823V1.95615V1.93V1.90386V1.87771V1.85156V1.82542V1.79927V1.77312V1.74698V1.72083V1.69468V1.66853V1.64239V1.61624V1.59009V1.56394V1.53779V1.51164V1.48549V1.45934V1.4332V1.40705V1.3809V1.35475V1.3286V1.30245V1.2763V1.25014V1.22399V1.19784V1.17169V1.14554V1.11939V1.09324V1.06708V1.04093V1.01478V0.988628V0.962475V0.936322V0.910169V0.884016V0.857862V0.831709V0.805555V0.779401V0.753246V0.727092V0.700937V0.674783V0.648627V0.622472V0.596317V0.570161V0.544005V0.517849V0.491693V0.465537V0.43938V0.413223V0.387066V0.360909V0.334751V0.323897H0.362138H0.370478H0.378818H0.387157H0.395497H0.403836H0.412176H0.420515H0.428855H0.437194H0.445534H0.453873H0.462212H0.470552H0.478891H0.48723H0.495569H0.503909H0.512248H0.520587H0.528926H0.537265H0.545604H0.553944H0.562283H0.570622H0.578961H0.5873H0.595639H0.603978H0.612317H0.620656H0.628995H0.637334H0.645673H0.654012H0.66235H0.670689H0.679028H0.687367H0.695706H0.704045H0.712384H0.720723H0.729061H0.7374H0.745739H0.754078H0.762417H0.770756H0.779095H0.787433H0.795772H0.804111H0.81245H0.820789H0.829128H0.837467H0.845805H0.854144H0.862483H0.870822H0.879161H0.8875H0.895839H0.904178H0.912517H0.920856H0.929195H0.937534H0.945873H0.954212H0.962551H0.97089H0.979229H0.987568H0.995907H1.00425H1.01259H1.02092H1.02926H1.0376H1.04594H1.05428H1.06262H1.07096H1.0793H1.08764H1.09598H1.10432H1.11266H1.121H1.12934H1.13767H1.14601H1.15435H1.16269H1.17103H1.17937H1.18771H1.19605H1.20439H1.21273H1.22107H1.22941H1.23775H1.24609H1.25443H1.26277H1.27111H1.27945H1.28779H1.29613H1.30447H1.31281H1.32115H1.32949H1.33783H1.34617H1.35451H1.36285H1.3712H1.37954H1.38788H1.39622H1.40456H1.4129H1.42124H1.42958H1.43792H1.44626H1.4546H1.46295H1.47129H1.47963H1.48797H1.49631H1.50465H1.51299H1.52134H1.52968H1.53802H1.54636H1.5547H1.56304H1.57139H1.57973H1.58807H1.59641H1.60475H1.6131H1.62144H1.62978H1.63812H1.64647H1.65481H1.66315H1.6715H1.67984H1.68818H1.69652H1.70487H1.71321H1.72155H1.7299H1.73824H1.74658H1.75493H1.76327H1.77161H1.77996H1.7883H1.79665H1.80499H1.81333H1.82168H1.83002H1.83837H1.84671H1.85506H1.8634H1.87175H1.88009H1.88844H1.89678H1.90513H1.91347H1.92182H1.93016H1.93851H1.94685H1.9552H1.96354H1.97189H1.98024H1.98858H1.99693H2.00528H2.01362H2.02197H2.03031H2.03866H2.04701H2.05536H2.0637H2.07205H2.0804H2.08874H2.09709H2.10544H2.11379H2.12213H2.13048H2.13883H2.14718H2.15553H2.16388H2.17222H2.18057H2.18892H2.19727H2.20562H2.21397H2.22232H2.23067H2.23902H2.24737H2.25571H2.26406H2.27241H2.28076H2.28911H2.29746H2.30582H2.31417H2.32252H2.33087H2.33922H2.34757H2.35592H2.36427H2.37262H2.38097H2.38933H2.39768H2.40603H2.41438H2.42273H2.43109H2.43944H2.44779H2.45614H2.4645H2.47285H2.4812H2.48956H2.49791H2.50626H2.51462H2.52297H2.53133H2.53968H2.54803H2.55639H2.56474H2.5731H2.58145H2.58981H2.59816H2.60652H2.61487H2.62323H2.63159H2.63994H2.6483H2.65665H2.66501H2.67337H2.68172H2.69008H2.69844H2.7068H2.71515H2.72351H2.73187H2.74023H2.74858H2.75694H2.7653H2.77366H2.78202H2.79038H2.79874H2.80709H2.81545H2.82381H2.83217H2.84053H2.84889H2.85725H2.86561H2.87397H2.88233H2.8907H2.89906H2.90742H2.91578H2.92414H2.9325H2.94086H2.94923H2.95759H2.96595H2.97431H2.98268H2.99104H2.9994H3.00777H3.01613H3.02449H3.03286H3.04122H3.04959H3.05795H3.06632H3.07468H3.08305H3.09141H3.09978H3.10814H3.11651H3.12487H3.13324H3.14161H3.14997H3.15834H3.16671H3.17507H3.18344H3.19181H3.20018H3.20854H3.21691H3.22528H3.23365H3.24202H3.25039H3.25876H3.26713H3.2755H3.28387H3.29224H3.30061H3.30898H3.31735H3.32572H3.33409H3.34246H3.35083H3.3592H3.36758H3.37595H3.38432H3.39269H3.40107H3.40944H3.41781H3.42619H3.43456H3.44293H3.45131H3.45968H3.46806H3.47643H3.48481H3.49318H3.50156H3.50993H3.51831H3.52668H3.53506H3.54344H3.55181H3.56019H3.56857H3.57695H3.58532H3.5937H3.60208H3.61046H3.61884H3.62721H3.63559H3.64397H3.65235H3.66073H3.66911H3.67749H3.68587H3.69425H3.70264H3.71102H3.7194H3.72778H3.73616H3.74454H3.75293H3.76131H3.76969H3.77807H3.78646H3.79484H3.80323H3.81161H3.81999H3.82838H3.83676H3.84515H3.85353H3.86192H3.87031H3.87869H3.88708H3.89547H3.90385H3.91224H3.92063H3.92902H3.9374H3.94579H3.95418H3.96257H3.97096H3.97935H3.98774H3.99613H4.00452H4.01291H4.0213H4.02969H4.03808H4.04647H4.05486H4.06326H4.07165H4.08004H4.08843H4.09683H4.10522H4.11361H4.12201H4.1304H4.1388H4.14719H4.15559H4.16398H4.17238H4.18077H4.18917H4.19756H4.20596H4.21436H4.22275H4.23115H4.23955H4.24795H4.25635H4.26475H4.27314H4.28154H4.28994H4.29834H4.30674H4.31514H4.32354H4.33195H4.34035H4.34875H4.35715H4.36555H4.37395H4.38236H4.39076H4.39916H4.40757H4.41597H4.42438H4.43278H4.44118H4.44959H4.458H4.4664H4.47481H4.48321H4.49162H4.50003H4.50843H4.51684H4.52525H4.53366H4.54207H4.55048H4.55888H4.56729H4.5757H4.58411H4.59252H4.60093H4.60935H4.61087V0.33469V0.360787V0.386884V0.412981V0.439078V0.465174V0.491271V0.517368V0.543465V0.569562V0.595659V0.621756V0.647853V0.67395V0.700047V0.726145V0.752242V0.778339V0.804436V0.830534V0.856631V0.882729V0.908826V0.934924V0.961021V0.987119V1.01322V1.03931V1.06541V1.09151V1.11761V1.14371V1.1698V1.1959V1.222V1.2481V1.27419V1.30029V1.32639V1.35249V1.37859V1.40469V1.43078V1.45688V1.48298V1.50908V1.53518V1.56128V1.58738V1.61347V1.63957V1.66567V1.69177V1.71787V1.74397V1.77007V1.79617V1.82227V1.84837V1.87446V1.90056V1.92666V1.95276V1.97886V2.00496V2.03106V2.05716V2.08326V2.10936V2.13546V2.16156V2.18766V2.21376V2.23986V2.26596V2.29206V2.31816V2.34426V2.37036V2.39647V2.42257V2.44867V2.47477V2.50087V2.52697V2.55307V2.57917V2.60527V2.63137V2.65748V2.68358V2.70968V2.73578V2.76188V2.78798V2.81409V2.84019V2.86629V2.89239V2.91849V2.9446V2.9707V2.9968V3.0229V3.04901V3.07511V3.10121V3.12731V3.15342V3.17952V3.20562V3.23173V3.25783V3.28393V3.31004V3.33614V3.36224V3.38835V3.41445V3.44056V3.46666V3.49276V3.51887V3.54497V3.57108V3.59718V3.62329V3.64939V3.6755V3.7016V3.72771V3.75381V3.77992V3.80602V3.83213V3.85823V3.88434V3.91044V3.93655V3.96266V3.98876V4.01487V4.04097V4.06708V4.09319V4.11929V4.1454V4.17151V4.19761V4.22372V4.24983V4.27593V4.30204V4.32815V4.35426V4.38036V4.40647V4.43258V4.45869V4.4848V4.5109V4.53701V4.56312V4.58923V4.61534V4.64145V4.66756V4.69367V4.71977V4.74588V4.77199V4.7981V4.82421V4.85032V4.87643V4.90254V4.92865V4.95476V4.98087V5.00698V5.03309V5.05921V5.08532V5.11143V5.13754V5.16365V5.18976V5.21587V5.24198V5.2681V5.29421V5.32032V5.34643V5.37255V5.39866V5.42477V5.45088V5.477V5.50311V5.52922V5.55534V5.58145V5.60756V5.63368V5.65979V5.6859V5.71202V5.73813V5.76425V5.79036V5.81648V5.84259V5.86871V5.89482V5.92094V5.94705V5.97317V5.99928V6.0254V6.05152V6.07763V6.10375V6.12986V6.15598V6.1821V6.20822V6.23433V6.26045V6.28657V6.31268V6.3388V6.36492V6.39104V6.41716V6.44327V6.46939V6.49551V6.52163V6.54775V6.57387V6.59999V6.62611V6.65223V6.67835V6.70447V6.73059V6.75671V6.78283V6.80895V6.83507V6.86119V6.88731V6.91343V6.93955V6.96567V6.9918V7.01792V7.04404V7.07016V7.09629V7.12241V7.14853V7.17465V7.20078V7.2269V7.25302V7.27915V7.30527V7.3314V7.35752V7.38364V7.40977V7.43589V7.46202V7.48814V7.51427V7.54039V7.56652V7.59264V7.61877V7.6449V7.67102V7.69715V7.72328V7.7494V7.77553V7.80166V7.82778V7.85391V7.88004V7.90617V7.9323V7.95842V7.98455V8.01068V8.03681V8.06294V8.08907V8.1152V8.14133V8.16746V8.19359V8.21972V8.24585V8.27198V8.29811V8.32424V8.35037V8.3765V8.40264V8.42877V8.4549V8.48103V8.50716V8.5333V8.55943V8.58556V8.6117V8.63783V8.66396V8.6901V8.71623V8.74236V8.7685V8.79463V8.82077V8.8469V8.87304V8.89917V8.92531V8.95145V8.97758V9.00372V9.02985V9.05599V9.08213V9.10827V9.1344V9.16054V9.18668V9.21282V9.23895V9.26509V9.29123V9.31737V9.34351V9.36965V9.39579V9.42193V9.44807V9.47421V9.50035V9.52649V9.55263V9.57877V9.60491V9.63105V9.6572V9.68334V9.70948V9.73562V9.76177V9.78791V9.81405V9.84019V9.86634V9.89248V9.91863V9.94477V9.97091V9.99706V10.0232V10.0493V10.0755V10.1016V10.1278V10.1539V10.1801V10.2062V10.2324V10.2585V10.2847V10.3108V10.337V10.3631V10.3893V10.4154V10.4416V10.4677V10.4939V10.52V10.5462V10.5723V10.5985V10.6246V10.6508V10.6769V10.7031V10.7292V10.7554V10.7815V10.8077V10.8338V10.86V10.8861V10.9123V10.9384V10.9646V10.9907V11.0169V11.043V11.0692V11.0954V11.1215V11.1477V11.1738V11.2V11.2261V11.2523V11.2784V11.3046V11.3308V11.3569V11.3831V11.4092V11.4354V11.4615V11.4877V11.5139V11.54V11.5662V11.5923V11.6185V11.6447V11.6708V11.697V11.7231V11.7493V11.7755V11.8016V11.8278V11.854V11.8801V11.9063V11.9324V11.9586V11.9848V12.0109V12.0371V12.0633V12.0894V12.1156V12.1418V12.1679V12.1941V12.2203V12.2464V12.2726V12.2988V12.3249V12.3511V12.3773V12.4034V12.4296V12.4558V12.4819V12.5081V12.5343V12.5604V12.5866V12.6128V12.639V12.6651V12.6913V12.7175V12.7436V12.7698V12.796V12.8222V12.8483V12.8745V12.9007V12.9269V12.953V12.9792V13.0054V13.0316V13.0577V13.0839V13.1101V13.1363V13.1624V13.1886V13.2148V13.241V13.2671V13.2933V13.3195V13.3457V13.3719V13.398V13.4242V13.4504V13.4766V13.5028V13.5289V13.5551V13.5813V13.6075V13.6337V13.6599V13.6707Z" fill="#070707" stroke="#070707" stroke-width="0.0306072"/>
</svg>
